<svg width="157" height="30" viewBox="0 0 157 30" fill="none" xmlns="http://www.w3.org/2000/svg">
<path fill-rule="evenodd" clip-rule="evenodd" d="M12.1717 0.798826V8.08991C11.75 6.79129 11.013 5.2936 9.95978 4.39482C8.37948 2.99623 6.79918 4.09494 6.06218 5.69259C4.48189 8.88874 4.69271 12.7846 6.37842 15.8808C7.22083 17.2785 8.27496 18.6771 9.43361 19.7758C10.0652 20.4755 10.6977 20.9753 11.3293 21.5742C11.5401 21.6733 12.1717 22.074 12.1717 22.2739V26.7679C6.48384 23.2718 0.690596 18.179 0.0581188 11.486C-0.25812 8.18988 0.690596 4.59389 3.53406 2.49729C5.00895 1.4977 6.58836 1.09871 8.37948 1.09871C9.11648 1.09871 9.74895 1.19866 10.486 1.39858C11.0139 1.59765 11.6455 1.09786 12.1717 0.798826ZM46.5095 9.88748C45.0346 9.88748 44.0867 8.38894 44.6138 7.09117C45.2454 5.49267 47.3519 4.99287 49.0376 5.09368C50.7224 5.19364 52.8298 6.19238 53.1451 7.89C53.3559 8.48975 53.2505 9.18861 53.2505 9.78837C53.2505 10.6872 53.2505 11.6859 53.3559 12.5847C53.3559 14.3831 53.3559 16.1807 53.4613 17.9791V20.3764C53.4613 21.0744 53.7776 21.6733 53.9875 22.3731C54.0929 22.4722 54.6191 23.4718 54.6191 23.4718C54.4092 23.7716 53.4613 23.6717 53.0397 23.6717H51.0386C50.1953 23.5709 50.0899 22.573 49.7737 21.9741C49.4574 22.7729 48.5096 23.3718 47.6672 23.4718C46.2977 23.6717 45.3499 22.8728 44.6129 21.9741C43.8934 20.9465 43.4836 19.7521 43.4278 18.5198C43.3721 17.2875 43.6725 16.0642 44.2967 14.982C44.9292 13.8833 45.877 12.9837 46.8248 12.2848C47.7726 11.685 49.1421 10.9862 49.4574 9.98744C49.6683 9.28857 49.352 7.69007 48.4042 7.79003C47.5618 7.98995 47.1401 8.78878 47.8771 9.38853C47.4573 9.68841 47.0365 9.88748 46.5095 9.88748ZM49.3538 13.4835C47.9843 14.2823 47.2473 15.8808 47.0365 17.3793C46.9311 18.2781 46.8257 21.0736 48.6168 20.4747C49.8809 20.0757 49.4592 17.5776 49.4592 16.6796C49.4592 15.5809 49.3538 14.5822 49.3538 13.4835ZM37.2403 23.6717C37.9782 23.0728 37.8727 21.5734 37.8727 20.6754V18.3772V14.3823V9.78837V8.88874C37.8727 8.58886 38.0836 7.9891 37.6619 7.9891C36.9249 7.88915 36.2925 7.88915 35.5555 7.78919C37.5565 6.29149 39.5576 4.89292 41.4541 3.39438V4.693C41.4541 4.89291 41.3487 5.7917 41.5595 5.99162C41.6649 6.09158 42.7182 5.99162 42.929 5.99162H44.2985C44.0876 6.39146 43.8768 6.79044 43.7723 7.19028C43.6669 7.3902 43.6669 7.59012 43.5615 7.78919C43.3506 7.9891 43.3506 7.9891 43.0344 7.9891H41.8758C41.5595 7.9891 41.6649 7.98911 41.6649 8.28899V21.1735C41.6649 21.8716 41.6649 23.2701 42.2974 23.67C40.6108 23.6717 38.926 23.6717 37.2403 23.6717ZM57.7806 3.79506C58.9392 3.79506 60.2033 3.0962 60.2033 1.89753C60.2033 0.698871 58.9392 0 57.7806 0C56.6219 0 55.3579 0.699718 55.3579 1.89753C55.3579 3.0962 56.621 3.79506 57.7806 3.79506ZM55.8841 9.18861C55.8841 8.28983 55.4624 7.39105 54.8308 6.69218C55.7786 6.69218 56.8319 6.09242 57.5689 5.69259C58.2013 5.39271 59.1492 5.09368 59.6753 4.69384C59.5699 7.88999 59.5699 11.1861 59.5699 14.3823V19.8758C59.5699 21.0736 59.5699 22.6721 60.4123 23.6708H55.4615C56.094 21.1744 55.8832 18.5763 55.8832 15.9791L55.8841 9.18861ZM68.84 9.28858V19.3768C68.84 20.7746 69.0508 22.4722 68.4184 23.7716H73.1584C72.9484 22.8729 72.5268 22.074 72.5268 21.1761V17.9799V10.1891C72.5268 9.29027 72.7367 7.99165 72.316 7.19282C71.7898 6.09412 70.5257 5.69428 69.3671 5.69428C68.84 5.79424 68.3129 5.8942 67.7868 6.19408C67.5174 6.32669 67.2692 6.49497 67.0498 6.69387C66.9444 6.69387 66.6281 7.09371 66.6281 7.09371C65.8902 7.09371 66.2065 4.99542 66.3119 4.59643C65.6803 5.09622 64.7316 5.29614 64.1 5.59517C63.6784 5.89505 63.2576 6.09412 62.7305 6.29488C62.4143 6.39484 61.8881 6.69472 61.5719 6.69472C62.4143 7.49354 62.4143 7.99249 62.4143 9.09204V20.8779C62.4143 21.6767 62.4143 23.1761 61.6773 23.775H66.7326C66.2065 22.6763 66.1011 21.4785 66.1011 20.279V15.2853C66.1011 13.5877 65.9956 11.6893 66.1011 9.99083C66.2065 9.29196 66.6272 8.5931 67.2597 8.29322C68.2075 7.88999 68.84 8.38979 68.84 9.28858ZM16.2801 10.1874C15.2269 10.1874 13.9628 9.38854 13.9628 8.28983C13.9628 6.89125 15.2269 5.99247 16.4909 5.59263C19.019 4.89377 22.7058 5.79255 22.7058 8.78878C22.7058 11.5859 22.8112 14.3823 22.8112 17.1794V21.0744C22.8112 21.5742 23.022 22.074 23.2329 22.5738C23.3383 22.7737 23.4437 22.8737 23.6545 23.0736C23.7599 23.2718 23.9708 23.3735 24.0762 23.5717C24.0762 23.5717 22.3905 23.6725 22.1796 23.6725H20.5993C19.9669 23.5717 19.8623 23.0736 19.5461 22.5738C18.9136 23.2718 17.755 23.5717 16.7017 23.5717C15.4377 23.5717 14.489 22.5738 13.9628 21.5751C12.6987 19.4768 12.5933 16.4805 14.0682 14.4831C14.8061 13.3844 15.7539 12.6855 16.9126 11.9866C17.755 11.4868 19.5461 10.8879 19.4407 9.68926C19.3353 8.89043 18.7037 8.19072 17.9658 8.19072C16.8072 8.19072 17.018 9.28942 17.6496 9.68926C17.2279 9.98744 16.8063 10.1874 16.2801 10.1874ZM19.0181 13.6834C18.3377 14.087 17.7587 14.627 17.3219 15.2655C16.8851 15.9041 16.6012 16.6256 16.49 17.3793C16.2801 18.478 16.2801 20.3756 17.8595 20.3756C19.3335 20.3756 19.0181 17.6784 19.0181 16.8795V13.6834ZM24.1798 28.5663C25.1285 27.7675 25.1285 26.169 25.1285 24.9711V22.473V17.4793C25.1285 14.3831 25.3384 11.187 25.1285 8.09076C25.1285 7.39189 24.8123 6.59222 24.2861 6.19323C25.8664 5.59348 27.4458 4.89461 29.1315 4.2957C29.1315 4.89545 28.9207 6.09327 29.3415 6.69303C31.0272 5.3944 34.0815 4.7955 35.241 7.09286C35.7672 7.99165 35.4509 9.49019 35.4509 10.4881V18.3781C35.4509 19.3777 35.6618 20.6763 35.4509 21.6742C34.7139 24.3714 30.9218 23.5717 29.3415 22.2748V25.5709C29.3415 26.4697 29.4469 27.8674 30.3956 28.5671L24.1798 28.5663ZM29.446 9.28858V16.1798C29.446 17.0786 29.3406 18.2781 29.5514 19.2769C29.7613 20.2748 31.7633 20.5738 31.7633 19.2769V11.9849C31.7633 10.9862 31.8687 9.88663 31.6579 8.9887C31.4479 7.79003 29.446 7.98996 29.446 9.28858ZM136.042 10.0874C134.568 10.0874 133.618 8.58971 134.145 7.29109C134.777 5.69259 136.884 5.19364 138.568 5.2936C140.254 5.39356 142.361 6.3923 142.677 8.08991C142.888 8.68967 142.782 9.38853 142.782 9.98744C142.782 10.8862 142.782 11.885 142.888 12.7846C142.888 14.5822 142.888 16.3806 142.993 18.179V20.5746C142.993 21.2743 143.309 21.8733 143.52 22.573C143.624 22.6721 144.151 23.6717 144.151 23.6717C143.835 23.9716 142.993 23.8716 142.57 23.8716H140.569C139.728 23.7708 139.621 22.7729 139.306 22.1723C138.99 22.9711 138.043 23.57 137.2 23.6717C135.831 23.8716 134.883 23.0728 134.145 22.1723C133.426 21.1448 133.016 19.9505 132.961 18.7184C132.905 17.4863 133.205 16.2632 133.829 15.1811C134.46 14.0824 135.41 13.1836 136.357 12.4839C137.305 11.8841 138.674 11.1853 138.99 10.1865C139.2 9.48765 138.885 7.88915 137.935 7.9891C137.093 8.18902 136.672 8.9887 137.41 9.5876C136.989 9.88748 136.569 10.0874 136.042 10.0874ZM138.886 13.6834C137.516 14.4822 136.779 16.0807 136.569 17.5784C136.462 18.3772 136.569 21.1752 138.148 20.6754C139.411 20.2748 138.99 17.7783 138.99 16.8804C138.99 15.7817 138.886 14.7821 138.886 13.6834ZM149.524 4.69384C148.892 5.19364 148.05 5.49267 147.311 5.89251C146.469 6.29234 145.625 6.69133 144.783 6.89125C145.099 7.19113 145.732 7.59097 145.732 8.08991V21.0744C145.732 21.8733 145.836 23.3726 145.098 23.9716H150.365C149.838 23.5709 149.943 22.4722 149.838 21.8733V19.4759C149.734 17.1794 149.734 14.8812 149.627 12.5847C149.627 11.6859 149.523 10.6872 149.734 9.88748C149.838 9.08866 150.681 7.88999 151.628 8.18987C152.471 8.58971 152.26 10.2873 152.26 10.987V20.3764C152.26 20.7754 152.155 21.2752 152.26 21.6733C152.26 22.2739 152.471 23.5709 151.944 23.9716H157C156.368 23.4718 156.368 22.074 156.368 21.3743C156.368 20.1765 156.368 19.0778 156.262 17.8783C156.262 15.082 156.158 12.2857 156.158 9.48934C156.053 8.4906 156.262 7.3919 155.421 6.59307C154.473 5.79424 153.102 5.59432 151.944 5.8942C151.312 6.09327 150.785 6.29404 150.258 6.69303C150.154 6.79298 149.733 7.29193 149.626 6.8921C149.417 6.29234 149.524 5.2936 149.524 4.69384ZM121.611 5.59263C119.398 4.59389 117.188 5.8925 115.923 7.59011C115.607 7.49016 115.712 6.39146 115.712 6.19154V4.89291C115.081 5.29275 114.133 5.59178 113.501 5.89166C113.079 6.09073 112.659 6.2915 112.236 6.49057C112.027 6.59053 111.605 6.8904 111.288 6.8904C112.868 8.18903 112.658 10.0866 112.658 11.785V21.0736C112.658 21.8724 112.658 23.3718 111.92 23.9707H118.135C117.081 23.1719 116.661 21.8724 116.661 20.6746V15.481C116.661 13.7825 116.555 12.084 116.661 10.3864C116.661 9.78752 116.765 8.68882 117.503 8.38894C118.135 7.9891 118.977 8.88874 119.293 9.28858C120.136 8.08991 120.875 6.79129 121.611 5.59263ZM81.2698 1.99749C82.1122 2.59724 82.7438 2.99623 82.533 4.09493C82.3221 5.09368 82.0059 6.09242 81.7969 7.09202C81.059 9.88833 80.3229 12.6855 79.6895 15.4827C79.057 18.1799 78.3209 20.8745 77.6884 23.4726C77.2668 25.4692 76.846 27.3693 75.8982 29.2668C77.1623 28.5671 78.0047 27.3693 79.1624 26.5696C79.7958 26.0698 80.5319 25.5701 81.1635 25.1702C81.9014 24.7712 82.6393 24.1723 83.4826 23.9724C82.6402 23.2727 81.9014 22.3739 82.2176 21.2752C82.5339 20.1765 82.7447 19.0778 83.06 17.9791C83.5871 15.4826 84.2187 12.8846 84.8503 10.3881C85.5881 13.3844 86.3242 16.3814 87.063 19.2786C87.1693 19.6775 87.4856 19.5784 87.9054 19.5784H90.1182C90.2227 19.1777 90.3273 18.7796 90.3273 18.3789C90.6444 16.8812 90.9606 15.2836 91.1697 13.785C91.3805 12.5864 91.5922 11.3877 91.803 10.289L93.6978 17.78C94.014 18.8787 94.3312 19.9774 94.5402 20.9762C94.751 22.0749 93.8041 23.0745 92.9608 23.7725H99.9118C98.6486 22.7746 98.5423 20.8754 98.2261 19.4776C97.699 17.1811 97.1719 14.8829 96.7521 12.5864C96.225 10.389 95.698 8.0916 95.2781 5.89505C94.9618 4.49647 94.224 2.59894 96.0142 1.80011H90.4327C90.3264 2.49982 90.1164 3.09874 90.0101 3.69764L88.747 10.2899C88.1154 8.09245 87.4838 5.89505 86.8504 3.69764C86.6414 3.09789 86.4297 2.49898 86.3234 1.89923C86.2188 1.79927 84.8494 1.89923 84.6394 1.89923C83.4817 1.89753 82.4275 1.89753 81.2698 1.99749ZM99.0694 14.8812C99.0694 11.386 99.9118 5.89251 104.757 5.69259C109.707 5.49352 110.866 11.386 110.866 14.8812C110.866 18.5771 109.918 24.2706 104.968 24.2706C100.228 24.2706 99.0694 18.3772 99.0694 14.8812ZM104.969 21.8733C106.232 21.8733 106.443 19.9757 106.655 19.0769C106.864 17.7783 106.864 16.4797 106.864 15.1811C106.864 13.7825 106.864 12.3848 106.547 10.9862C106.338 10.0866 106.02 8.18902 104.968 7.79003C103.282 7.19113 103.071 13.7833 103.071 14.5822C103.071 15.9799 103.178 17.3793 103.388 18.7779C103.494 19.4759 103.915 21.8733 104.969 21.8733Z" fill="white"/>
<path fill-rule="evenodd" clip-rule="evenodd" d="M125.264 29.9955C127.893 30.0836 129.432 28.8274 129.721 28.5656C130.985 27.4669 131.195 26.1683 131.195 24.5698V19.4753V9.48783C131.195 8.08925 131.722 6.79063 132.565 5.69192C131.722 4.99306 129.403 6.09176 128.667 6.59156C128.245 6.89144 128.245 6.69151 127.929 6.4916C127.72 6.29252 127.509 6.19172 127.298 6.09176C126.56 5.79188 125.928 5.69193 125.192 5.79188C122.241 6.09176 120.874 9.08799 120.347 11.5853C119.713 14.3816 119.713 17.8768 120.663 20.574C121.084 21.9734 122.032 23.2712 123.507 23.8718C124.877 24.2708 126.14 23.8718 127.194 23.0729C127.51 24.5706 127.51 27.267 125.298 27.0671C124.771 27.0671 123.085 26.6681 123.824 25.8693C124.14 25.5694 124.982 25.6693 125.403 25.7702C125.509 24.1717 123.192 24.2708 122.139 24.5706C120.349 25.0704 119.821 26.968 120.876 28.3657C121.132 28.7198 122.423 29.9015 125.264 29.9955ZM125.718 20.8738C126.877 20.8738 127.086 19.7751 127.192 18.7772C127.401 17.6785 127.401 16.3799 127.401 15.1813C127.401 14.0826 127.401 12.8839 127.297 11.6852C127.297 10.7864 127.192 9.18795 126.349 8.58904C124.242 7.39038 123.925 13.2837 123.925 14.1825C123.925 15.482 123.925 16.6798 124.242 17.8776C124.349 18.5782 124.665 20.8738 125.718 20.8738Z" fill="white"/>
</svg>
